<svg xmlns="http://www.w3.org/2000/svg" xmlns:xlink="http://www.w3.org/1999/xlink" width="220" zoomAndPan="magnify" viewBox="0 0 165 82.499998" height="110" preserveAspectRatio="xMidYMid meet" version="1.0"><defs><clipPath id="96cd3e30b4"><path d="M 0.496094 0 L 164.503906 0 L 164.503906 82.003906 L 0.496094 82.003906 Z M 0.496094 0 " clip-rule="nonzero"/></clipPath><clipPath id="ae9c543dc3"><path d="M 23.949219 17.5625 L 68 17.5625 L 68 64.527344 L 23.949219 64.527344 Z M 23.949219 17.5625 " clip-rule="nonzero"/></clipPath><clipPath id="5c7a115422"><path d="M 23.949219 17.5625 L 68 17.5625 L 68 64.527344 L 23.949219 64.527344 Z M 23.949219 17.5625 " clip-rule="nonzero"/></clipPath><clipPath id="4b746f4292"><path d="M 88 49 L 104 49 L 104 64.527344 L 88 64.527344 Z M 88 49 " clip-rule="nonzero"/></clipPath><clipPath id="e1255f0ae0"><path d="M 73 49 L 88 49 L 88 64.527344 L 73 64.527344 Z M 73 49 " clip-rule="nonzero"/></clipPath><clipPath id="807281c23e"><path d="M 104 43 L 109 43 L 109 64.527344 L 104 64.527344 Z M 104 43 " clip-rule="nonzero"/></clipPath><clipPath id="14b433bfb1"><path d="M 125 43 L 141.21875 43 L 141.21875 64.527344 L 125 64.527344 Z M 125 43 " clip-rule="nonzero"/></clipPath><clipPath id="6fc623e093"><path d="M 110 49 L 124 49 L 124 64.527344 L 110 64.527344 Z M 110 49 " clip-rule="nonzero"/></clipPath></defs><g clip-path="url(#96cd3e30b4)"><path fill="#ffffff" d="M 0.496094 0 L 164.503906 0 L 164.503906 82.003906 L 0.496094 82.003906 Z M 0.496094 0 " fill-opacity="1" fill-rule="nonzero"/></g><g clip-path="url(#ae9c543dc3)"><path fill="#ffed00" d="M 46.65625 33.472656 C 46.742188 33.472656 46.824219 33.472656 46.996094 33.472656 C 47.847656 33.472656 48.78125 33.558594 49.632812 33.644531 C 49.632812 33.730469 49.632812 33.898438 49.632812 33.984375 C 48.695312 33.8125 47.675781 33.644531 46.65625 33.472656 M 48.441406 47.257812 C 48.015625 47.257812 47.503906 47.34375 47.082031 47.425781 C 46.570312 47.511719 45.976562 47.683594 45.464844 47.851562 C 44.953125 48.023438 44.445312 48.277344 43.933594 48.535156 C 43.507812 48.789062 43.082031 49.128906 42.742188 49.46875 C 42.574219 49.640625 42.402344 49.894531 42.234375 50.148438 C 42.914062 50.148438 43.59375 50.066406 44.273438 49.894531 C 45.039062 49.722656 45.71875 49.46875 46.316406 49.128906 C 46.910156 48.789062 47.503906 48.363281 48.015625 47.851562 C 48.1875 47.597656 48.355469 47.425781 48.441406 47.257812 M 31.179688 30.15625 C 32.453125 31.433594 33.644531 32.621094 34.921875 33.898438 C 34.324219 34.070312 33.8125 34.238281 33.304688 34.410156 C 32.113281 34.835938 30.921875 35.429688 29.816406 36.109375 C 28.710938 36.792969 27.777344 37.726562 26.925781 38.664062 C 26.160156 39.601562 25.480469 40.707031 24.96875 41.8125 C 24.460938 42.917969 24.121094 44.195312 24.035156 45.386719 C 23.949219 46.578125 23.949219 47.765625 24.203125 48.957031 C 24.460938 50.148438 24.886719 51.257812 25.480469 52.277344 C 25.992188 53.042969 26.585938 53.808594 27.179688 54.488281 L 32.878906 60.191406 C 34.835938 62.144531 37.300781 63.421875 40.023438 64.019531 C 40.871094 64.1875 41.722656 64.273438 42.660156 64.359375 C 43.167969 64.359375 43.679688 64.445312 44.1875 64.445312 C 44.785156 64.445312 45.464844 64.445312 46.058594 64.445312 C 47.503906 64.359375 48.867188 64.101562 50.226562 63.679688 C 51.671875 63.253906 53.035156 62.65625 54.394531 61.804688 L 56.351562 63.761719 C 56.433594 63.847656 56.605469 63.933594 56.773438 63.933594 L 67.320312 63.933594 C 67.660156 63.933594 67.914062 63.679688 67.914062 63.335938 L 67.914062 41.214844 C 67.914062 35.6875 66.46875 31.347656 63.40625 28.285156 L 57.710938 22.582031 C 57.539062 22.414062 57.371094 22.242188 57.117188 22.074219 C 56.265625 21.308594 55.328125 20.625 54.308594 20.117188 C 53.289062 19.519531 52.097656 19.09375 50.992188 18.753906 C 49.71875 18.414062 48.441406 18.074219 47.164062 17.902344 C 45.71875 17.648438 44.273438 17.5625 42.828125 17.5625 C 39.683594 17.5625 36.535156 17.988281 33.472656 18.839844 C 31.433594 19.351562 29.476562 20.117188 27.605469 21.136719 C 27.351562 21.308594 27.265625 21.648438 27.351562 21.902344 C 28.628906 24.625 29.816406 27.261719 31.09375 29.984375 C 31.09375 30.070312 31.179688 30.070312 31.179688 30.15625 " fill-opacity="1" fill-rule="evenodd"/></g><path fill="#1d1d1b" d="M 37.8125 49.042969 C 37.8125 48.875 37.8125 48.703125 37.8125 48.449219 C 37.8125 48.109375 37.894531 47.851562 37.980469 47.511719 C 38.066406 47.171875 38.238281 46.832031 38.492188 46.492188 C 38.917969 45.8125 39.511719 45.300781 40.105469 44.875 C 40.789062 44.449219 41.46875 44.109375 42.234375 43.855469 C 43 43.597656 43.765625 43.429688 44.613281 43.34375 C 45.550781 43.171875 46.484375 43.171875 47.503906 43.171875 C 48.269531 43.171875 49.035156 43.171875 49.800781 43.257812 C 49.800781 42.832031 49.800781 42.40625 49.71875 41.980469 C 48.695312 41.8125 47.761719 41.640625 46.742188 41.554688 C 45.71875 41.472656 44.613281 41.472656 43.59375 41.472656 C 43.082031 41.472656 42.488281 41.554688 41.976562 41.640625 C 41.554688 41.726562 41.042969 41.8125 40.617188 41.898438 C 39.765625 42.066406 39 42.40625 38.320312 42.832031 C 37.980469 43.003906 37.726562 43.257812 37.386719 43.511719 C 37.132812 43.769531 36.875 44.023438 36.707031 44.363281 C 36.535156 44.621094 36.367188 44.960938 36.28125 45.300781 C 36.195312 45.640625 36.195312 45.980469 36.195312 46.40625 C 36.195312 46.746094 36.28125 47.085938 36.449219 47.425781 C 36.535156 47.597656 36.621094 47.765625 36.707031 47.9375 C 36.789062 48.109375 36.960938 48.277344 37.046875 48.449219 C 37.300781 48.617188 37.554688 48.875 37.8125 49.042969 M 40.957031 50.066406 C 41.210938 49.554688 41.46875 49.042969 41.894531 48.617188 C 42.320312 48.191406 42.828125 47.765625 43.339844 47.425781 C 44.445312 46.832031 45.636719 46.40625 46.910156 46.152344 C 47.675781 45.980469 48.441406 45.894531 49.207031 45.894531 C 49.292969 45.640625 49.375 45.46875 49.460938 45.214844 C 49.546875 44.875 49.632812 44.621094 49.632812 44.277344 C 48.953125 44.195312 48.1875 44.195312 47.503906 44.195312 C 46.570312 44.195312 45.71875 44.277344 44.871094 44.363281 C 44.105469 44.449219 43.425781 44.621094 42.742188 44.875 C 42.0625 45.128906 41.46875 45.386719 40.957031 45.8125 C 40.449219 46.152344 40.023438 46.578125 39.683594 47.085938 C 39.425781 47.511719 39.257812 48.023438 39.171875 48.535156 C 39.171875 48.875 39.171875 49.300781 39.257812 49.640625 C 39.511719 49.722656 39.683594 49.808594 39.9375 49.808594 C 40.191406 49.980469 40.53125 50.066406 40.957031 50.066406 M 48.441406 47.257812 C 48.015625 47.257812 47.503906 47.34375 47.082031 47.425781 C 46.570312 47.511719 45.976562 47.683594 45.464844 47.851562 C 44.953125 48.023438 44.445312 48.277344 43.933594 48.535156 C 43.507812 48.789062 43.082031 49.128906 42.742188 49.46875 C 42.574219 49.640625 42.402344 49.894531 42.234375 50.148438 C 42.914062 50.148438 43.59375 50.066406 44.273438 49.894531 C 45.039062 49.722656 45.71875 49.46875 46.316406 49.128906 C 46.910156 48.789062 47.503906 48.363281 48.015625 47.851562 C 48.1875 47.597656 48.355469 47.425781 48.441406 47.257812 M 50.398438 40.875 C 49.460938 40.621094 48.441406 40.535156 47.503906 40.449219 C 46.570312 40.367188 45.636719 40.28125 44.613281 40.28125 C 43.679688 40.28125 42.742188 40.367188 41.722656 40.449219 C 40.957031 40.535156 40.105469 40.707031 39.34375 40.960938 C 38.578125 41.214844 37.894531 41.554688 37.214844 41.980469 C 36.535156 42.40625 36.027344 43.003906 35.601562 43.683594 C 35.175781 44.363281 34.921875 45.128906 34.921875 45.980469 C 34.921875 46.832031 35.089844 47.597656 35.515625 48.277344 C 35.941406 48.957031 36.449219 49.554688 37.132812 50.066406 C 37.8125 50.488281 38.578125 50.832031 39.425781 51.085938 C 40.277344 51.257812 41.128906 51.339844 42.0625 51.339844 C 42.914062 51.339844 43.765625 51.257812 44.613281 51 C 45.464844 50.832031 46.230469 50.488281 46.996094 50.066406 C 47.761719 49.640625 48.441406 49.128906 48.953125 48.535156 C 49.292969 48.191406 49.546875 47.765625 49.800781 47.425781 C 50.140625 46.832031 50.398438 46.152344 50.566406 45.46875 C 50.90625 44.109375 50.992188 42.746094 50.738281 41.300781 C 50.824219 41.132812 50.652344 40.875 50.398438 40.875 " fill-opacity="1" fill-rule="evenodd"/><g clip-path="url(#5c7a115422)"><path fill="#1d1d1b" d="M 47.847656 29.816406 C 47.164062 29.644531 46.484375 29.558594 45.71875 29.476562 C 44.953125 29.390625 44.105469 29.390625 43.339844 29.390625 C 41.128906 29.476562 38.917969 29.898438 36.875 30.75 C 36.109375 31.007812 35.34375 31.433594 34.578125 31.773438 C 33.898438 31.089844 33.304688 30.496094 32.625 29.816406 C 33.472656 29.390625 34.410156 28.964844 35.34375 28.710938 C 37.300781 28.113281 39.257812 27.773438 41.296875 27.773438 C 42.574219 27.773438 43.847656 27.945312 45.039062 28.285156 C 45.976562 28.539062 46.910156 29.050781 47.589844 29.644531 C 47.675781 29.644531 47.761719 29.730469 47.847656 29.816406 M 44.105469 30.582031 C 43.847656 30.582031 43.59375 30.582031 43.339844 30.582031 C 41.808594 30.664062 40.363281 30.835938 38.917969 31.261719 C 38.320312 31.433594 37.8125 31.601562 37.214844 31.773438 C 36.621094 32.027344 36.027344 32.28125 35.429688 32.621094 L 36.28125 33.472656 C 36.535156 33.386719 36.789062 33.386719 37.132812 33.304688 C 38.40625 33.132812 39.765625 32.964844 41.042969 32.964844 L 41.128906 32.964844 C 43 32.367188 44.953125 32.113281 46.910156 32.113281 C 47.675781 32.113281 48.527344 32.199219 49.292969 32.28125 C 49.207031 31.941406 49.121094 31.6875 48.953125 31.433594 C 48.527344 31.175781 48.015625 31.007812 47.503906 30.921875 C 46.824219 30.75 46.230469 30.664062 45.550781 30.582031 C 45.125 30.582031 44.699219 30.582031 44.105469 30.582031 Z M 46.65625 33.472656 C 46.742188 33.472656 46.824219 33.472656 46.996094 33.472656 C 47.847656 33.472656 48.78125 33.558594 49.632812 33.644531 C 49.632812 33.730469 49.632812 33.898438 49.632812 33.984375 C 48.695312 33.8125 47.675781 33.644531 46.65625 33.472656 M 51.585938 53.722656 L 51.585938 57.125 L 60.941406 57.125 L 60.941406 35.515625 C 60.941406 34.15625 60.855469 32.878906 60.6875 31.515625 C 60.515625 30.324219 60.175781 29.21875 59.835938 28.113281 C 59.496094 27.09375 58.984375 26.15625 58.390625 25.222656 C 57.796875 24.371094 57.117188 23.605469 56.351562 22.921875 C 55.585938 22.242188 54.734375 21.648438 53.796875 21.136719 C 52.777344 20.625 51.757812 20.199219 50.738281 19.859375 C 49.546875 19.519531 48.355469 19.265625 47.082031 19.09375 C 45.71875 18.925781 44.273438 18.839844 42.914062 18.839844 C 39.851562 18.839844 36.875 19.265625 33.898438 20.03125 C 32.113281 20.542969 30.414062 21.136719 28.796875 21.988281 C 29.902344 24.285156 30.921875 26.582031 32.027344 28.878906 C 33.050781 28.367188 34.070312 27.945312 35.089844 27.601562 C 37.132812 26.921875 39.257812 26.582031 41.382812 26.582031 C 42.742188 26.582031 44.1875 26.753906 45.464844 27.09375 C 46.570312 27.433594 47.589844 27.945312 48.527344 28.710938 C 49.375 29.476562 49.972656 30.324219 50.398438 31.347656 C 50.824219 32.453125 50.992188 33.644531 50.992188 34.835938 C 50.992188 35.175781 50.738281 35.429688 50.398438 35.429688 C 50.3125 35.429688 50.3125 35.429688 50.226562 35.429688 C 47.335938 34.664062 44.273438 34.238281 41.210938 34.324219 C 39.9375 34.324219 38.660156 34.410156 37.472656 34.578125 C 36.195312 34.75 35.003906 35.089844 33.8125 35.515625 C 32.707031 35.941406 31.601562 36.453125 30.582031 37.132812 C 29.5625 37.8125 28.710938 38.578125 27.945312 39.515625 C 27.179688 40.367188 26.585938 41.300781 26.160156 42.320312 C 25.734375 43.34375 25.394531 44.449219 25.308594 45.554688 C 25.226562 46.660156 25.226562 47.683594 25.480469 48.789062 C 25.566406 49.808594 25.992188 50.746094 26.5 51.679688 C 27.097656 52.617188 27.863281 53.554688 28.710938 54.234375 C 29.5625 54.914062 30.496094 55.59375 31.433594 56.019531 C 32.453125 56.53125 33.472656 56.871094 34.578125 57.125 C 35.683594 57.382812 36.789062 57.46875 37.894531 57.46875 C 38.832031 57.550781 39.851562 57.46875 40.789062 57.46875 C 43 57.296875 45.210938 56.617188 47.164062 55.59375 C 48.441406 54.914062 49.632812 54.148438 50.738281 53.210938 L 50.824219 53.210938 C 51.078125 53.042969 51.417969 53.042969 51.671875 53.296875 C 51.585938 53.46875 51.585938 53.554688 51.585938 53.722656 M 60.941406 27.773438 C 61.367188 28.964844 61.621094 30.15625 61.878906 31.347656 C 62.132812 32.707031 62.21875 34.15625 62.21875 35.515625 L 62.21875 57.550781 C 62.726562 58.0625 63.324219 58.65625 63.832031 59.167969 L 63.832031 38.324219 C 63.832031 33.898438 62.8125 30.410156 60.941406 27.773438 M 62.984375 59.933594 L 61.367188 58.316406 L 52.4375 58.316406 L 54.054688 59.933594 Z M 50.566406 58.148438 C 50.480469 58.148438 50.480469 58.234375 50.398438 58.234375 C 49.292969 58.828125 48.1875 59.339844 46.996094 59.679688 C 45.71875 60.019531 44.445312 60.273438 43.082031 60.359375 C 42.488281 60.359375 41.894531 60.359375 41.296875 60.359375 C 40.789062 60.359375 40.363281 60.359375 39.851562 60.273438 C 39 60.191406 38.238281 60.105469 37.386719 59.933594 C 36.621094 59.765625 35.769531 59.507812 35.089844 59.167969 C 34.496094 58.914062 33.984375 58.65625 33.390625 58.316406 C 33.050781 58.148438 32.792969 57.890625 32.453125 57.722656 C 33.050781 57.976562 33.644531 58.148438 34.324219 58.234375 C 35.515625 58.488281 36.621094 58.574219 37.8125 58.65625 C 38.746094 58.65625 39.683594 58.65625 40.617188 58.65625 C 41.636719 58.574219 42.660156 58.402344 43.679688 58.148438 C 44.785156 57.890625 45.890625 57.46875 46.910156 56.957031 C 48.101562 56.359375 49.292969 55.679688 50.398438 54.914062 L 50.398438 57.636719 C 50.398438 57.890625 50.480469 58.0625 50.566406 58.148438 M 63.832031 30.582031 C 65.703125 33.21875 66.726562 36.707031 66.726562 41.132812 L 66.726562 61.890625 C 66.214844 61.378906 65.621094 60.785156 65.109375 60.273438 L 65.109375 38.324219 C 65.109375 35.6875 64.683594 33.132812 63.832031 30.582031 M 65.789062 62.828125 L 64.171875 61.210938 L 55.328125 61.210938 L 56.945312 62.828125 Z M 53.457031 61.039062 C 52.351562 61.722656 51.164062 62.230469 49.886719 62.570312 C 48.609375 62.914062 47.335938 63.167969 45.976562 63.253906 C 45.378906 63.253906 44.785156 63.253906 44.1875 63.253906 C 43.679688 63.253906 43.253906 63.253906 42.742188 63.167969 C 41.894531 63.082031 41.128906 62.996094 40.277344 62.828125 C 38.832031 62.570312 37.554688 61.976562 36.28125 61.296875 C 35.941406 61.125 35.683594 60.871094 35.34375 60.699219 C 35.941406 60.871094 36.535156 61.039062 37.132812 61.210938 C 37.980469 61.378906 38.832031 61.464844 39.765625 61.550781 C 40.277344 61.550781 40.789062 61.636719 41.296875 61.636719 C 41.894531 61.636719 42.574219 61.636719 43.167969 61.636719 C 44.613281 61.550781 45.976562 61.296875 47.335938 60.871094 C 48.78125 60.445312 50.140625 59.847656 51.503906 59 C 52.097656 59.679688 52.777344 60.359375 53.457031 61.039062 M 67.320312 64.019531 L 56.691406 64.019531 C 56.519531 64.019531 56.351562 63.933594 56.265625 63.847656 L 54.308594 61.890625 C 53.035156 62.65625 51.585938 63.253906 50.140625 63.761719 C 48.78125 64.1875 47.421875 64.445312 45.976562 64.527344 C 45.378906 64.527344 44.699219 64.613281 44.105469 64.527344 C 43.59375 64.527344 43.082031 64.527344 42.574219 64.445312 C 41.722656 64.359375 40.871094 64.273438 39.9375 64.101562 C 37.214844 63.507812 34.75 62.230469 32.792969 60.273438 L 27.097656 54.574219 C 26.414062 53.894531 25.820312 53.128906 25.394531 52.363281 C 24.800781 51.339844 24.375 50.234375 24.121094 49.042969 C 23.863281 47.851562 23.78125 46.660156 23.949219 45.46875 C 24.121094 44.195312 24.375 43.003906 24.886719 41.898438 C 25.394531 40.789062 25.992188 39.683594 26.839844 38.75 C 27.691406 37.726562 28.710938 36.878906 29.734375 36.195312 C 30.839844 35.515625 31.945312 34.921875 33.21875 34.496094 C 33.730469 34.324219 34.324219 34.15625 34.835938 33.984375 C 33.558594 32.707031 32.367188 31.515625 31.09375 30.242188 C 31.007812 30.15625 31.007812 30.15625 31.007812 30.070312 C 29.816406 27.261719 28.628906 24.625 27.351562 21.902344 C 27.265625 21.648438 27.351562 21.308594 27.605469 21.136719 C 29.476562 20.117188 31.433594 19.351562 33.472656 18.839844 C 36.535156 17.988281 39.683594 17.5625 42.828125 17.5625 C 44.273438 17.5625 45.71875 17.648438 47.164062 17.820312 C 48.441406 17.988281 49.71875 18.242188 50.992188 18.667969 C 52.183594 19.007812 53.289062 19.519531 54.308594 20.03125 C 55.328125 20.625 56.265625 21.308594 57.117188 21.988281 C 57.285156 22.15625 57.539062 22.328125 57.710938 22.5 L 63.40625 28.199219 C 66.382812 31.175781 67.914062 35.515625 67.914062 41.132812 L 67.914062 63.421875 C 67.832031 63.761719 67.574219 64.019531 67.320312 64.019531 " fill-opacity="1" fill-rule="evenodd"/></g><g clip-path="url(#4b746f4292)"><path fill="#1d1d1b" d="M 99.125 62.316406 L 99.125 64.019531 L 103.121094 64.019531 L 103.121094 49.554688 L 98.953125 49.554688 L 98.953125 56.699219 C 99.039062 57.722656 98.699219 58.828125 98.019531 59.59375 C 97.425781 60.273438 96.488281 60.613281 95.636719 60.613281 C 93.683594 60.613281 92.746094 59.421875 92.746094 57.125 L 92.746094 49.554688 L 88.578125 49.554688 L 88.578125 57.722656 C 88.410156 59.507812 89.089844 61.296875 90.28125 62.570312 C 91.472656 63.679688 93.171875 64.273438 94.789062 64.1875 C 95.636719 64.1875 96.488281 64.019531 97.253906 63.679688 C 97.933594 63.421875 98.613281 62.914062 99.125 62.316406 " fill-opacity="1" fill-rule="evenodd"/></g><g clip-path="url(#e1255f0ae0)"><path fill="#1d1d1b" d="M 82.796875 57.976562 C 82.285156 57.890625 81.691406 57.808594 81.097656 57.808594 C 80.585938 57.808594 79.992188 57.808594 79.480469 57.890625 C 79.054688 57.976562 78.628906 58.148438 78.203125 58.316406 C 77.863281 58.488281 77.523438 58.828125 77.355469 59.253906 C 77.183594 59.679688 77.269531 60.105469 77.441406 60.445312 C 77.695312 60.785156 78.035156 61.125 78.375 61.210938 C 78.800781 61.378906 79.3125 61.464844 79.820312 61.378906 C 80.332031 61.378906 80.757812 61.210938 81.179688 61.039062 C 81.605469 60.871094 81.945312 60.53125 82.203125 60.191406 C 82.796875 59.507812 82.96875 58.742188 82.796875 57.976562 M 87.050781 55.765625 C 87.050781 53.636719 86.453125 52.023438 85.261719 50.914062 C 83.816406 49.722656 81.945312 49.214844 80.074219 49.300781 C 78.886719 49.300781 77.78125 49.46875 76.675781 49.722656 C 75.910156 49.894531 75.230469 50.234375 74.546875 50.574219 C 74.972656 51.597656 75.484375 52.53125 75.910156 53.554688 C 76.335938 53.296875 76.757812 53.128906 77.183594 52.957031 C 77.949219 52.703125 78.714844 52.617188 79.480469 52.617188 C 80.417969 52.53125 81.265625 52.789062 81.945312 53.382812 C 82.542969 53.894531 82.796875 54.660156 82.796875 55.511719 C 81.691406 55.167969 80.585938 55.085938 79.394531 55.085938 C 78.460938 55.085938 77.441406 55.253906 76.589844 55.511719 C 75.738281 55.851562 74.886719 56.359375 74.292969 57.042969 C 73.699219 57.722656 73.359375 58.574219 73.273438 59.421875 C 73.1875 60.273438 73.359375 61.125 73.78125 61.890625 C 74.292969 62.65625 74.886719 63.253906 75.738281 63.59375 C 76.503906 63.933594 77.355469 64.1875 78.203125 64.1875 C 79.992188 64.273438 81.777344 63.761719 83.050781 62.570312 L 83.050781 64.019531 L 86.964844 64.019531 Z M 87.050781 55.765625 " fill-opacity="1" fill-rule="evenodd"/></g><g clip-path="url(#807281c23e)"><path fill="#1d1d1b" d="M 104.824219 43.257812 L 108.988281 43.257812 L 108.988281 64.019531 L 104.824219 64.019531 Z M 104.824219 43.257812 " fill-opacity="1" fill-rule="nonzero"/></g><g clip-path="url(#14b433bfb1)"><path fill="#1d1d1b" d="M 133.226562 60.785156 C 134.246094 60.785156 135.179688 60.445312 135.863281 59.679688 C 136.542969 58.914062 136.96875 57.808594 136.882812 56.785156 C 136.96875 55.679688 136.542969 54.660156 135.863281 53.894531 C 134.417969 52.445312 132.035156 52.445312 130.589844 53.894531 C 129.910156 54.660156 129.484375 55.765625 129.570312 56.785156 C 129.484375 57.890625 129.910156 58.914062 130.589844 59.679688 C 131.269531 60.445312 132.289062 60.785156 133.226562 60.785156 M 129.652344 43.257812 L 129.652344 51.085938 C 130.757812 49.894531 132.375 49.214844 133.992188 49.300781 C 135.265625 49.300781 136.542969 49.640625 137.648438 50.234375 C 138.753906 50.832031 139.605469 51.765625 140.199219 52.871094 C 140.878906 54.0625 141.132812 55.425781 141.132812 56.785156 C 141.132812 58.148438 140.878906 59.507812 140.199219 60.699219 C 139.605469 61.804688 138.667969 62.65625 137.648438 63.335938 C 136.542969 63.933594 135.265625 64.273438 133.992188 64.273438 C 132.289062 64.359375 130.589844 63.679688 129.484375 62.402344 L 129.484375 64.101562 L 125.488281 64.101562 L 125.488281 43.257812 Z M 129.652344 43.257812 " fill-opacity="1" fill-rule="evenodd"/></g><g clip-path="url(#6fc623e093)"><path fill="#1d1d1b" d="M 119.703125 57.976562 C 119.195312 57.890625 118.597656 57.808594 118.003906 57.808594 C 117.492188 57.808594 116.898438 57.808594 116.386719 57.890625 C 115.960938 57.976562 115.539062 58.148438 115.113281 58.316406 C 114.773438 58.488281 114.433594 58.828125 114.261719 59.253906 C 114.089844 59.679688 114.175781 60.105469 114.347656 60.445312 C 114.601562 60.785156 114.941406 61.125 115.28125 61.210938 C 115.707031 61.378906 116.21875 61.464844 116.726562 61.378906 C 117.238281 61.378906 117.664062 61.210938 118.089844 61.039062 C 118.515625 60.871094 118.855469 60.53125 119.109375 60.191406 C 119.703125 59.507812 119.875 58.742188 119.703125 57.976562 M 123.871094 55.765625 C 123.871094 53.636719 123.277344 52.023438 122.085938 50.914062 C 120.640625 49.722656 118.769531 49.214844 116.898438 49.300781 C 115.707031 49.300781 114.601562 49.46875 113.496094 49.722656 C 112.730469 49.894531 112.050781 50.234375 111.371094 50.574219 C 111.796875 51.597656 112.304688 52.53125 112.730469 53.554688 C 113.15625 53.296875 113.582031 53.128906 114.007812 52.957031 C 114.773438 52.703125 115.539062 52.617188 116.304688 52.617188 C 117.238281 52.53125 118.089844 52.789062 118.769531 53.382812 C 119.363281 53.894531 119.621094 54.660156 119.621094 55.511719 C 118.515625 55.167969 117.410156 55.085938 116.21875 55.085938 C 115.28125 55.085938 114.261719 55.253906 113.410156 55.511719 C 112.5625 55.851562 111.710938 56.359375 111.117188 57.042969 C 110.519531 57.722656 110.179688 58.574219 110.09375 59.421875 C 110.011719 60.273438 110.179688 61.125 110.605469 61.890625 C 111.117188 62.65625 111.710938 63.253906 112.5625 63.59375 C 113.328125 63.933594 114.175781 64.1875 115.027344 64.1875 C 116.8125 64.273438 118.597656 63.761719 119.875 62.570312 L 119.875 64.019531 L 123.785156 64.019531 Z M 123.871094 55.765625 " fill-opacity="1" fill-rule="evenodd"/></g></svg>