<svg xmlns="http://www.w3.org/2000/svg" xmlns:xlink="http://www.w3.org/1999/xlink" width="220" zoomAndPan="magnify" viewBox="0 0 165 82.499998" height="110" preserveAspectRatio="xMidYMid meet" version="1.0"><defs><clipPath id="e9e20b2754"><path d="M 0.496094 0 L 164.503906 0 L 164.503906 82.003906 L 0.496094 82.003906 Z M 0.496094 0 " clip-rule="nonzero"/></clipPath><clipPath id="1ac0de282d"><path d="M 8.699219 24.015625 L 42.8125 24.015625 L 42.8125 31.878906 L 8.699219 31.878906 Z M 8.699219 24.015625 " clip-rule="nonzero"/></clipPath><clipPath id="1ef1227bb6"><path d="M 41.621094 31.851562 L 9.886719 31.851562 C 9.234375 31.851562 8.699219 31.316406 8.699219 30.652344 L 8.699219 25.210938 C 8.699219 24.550781 9.234375 24.015625 9.886719 24.015625 L 41.617188 24.015625 C 42.277344 24.015625 42.8125 24.550781 42.8125 25.210938 L 42.8125 30.660156 C 42.8125 31.320312 42.277344 31.851562 41.617188 31.851562 " clip-rule="nonzero"/></clipPath><clipPath id="c9bf4f7936"><path d="M 8.699219 50.15625 L 42.8125 50.15625 L 42.8125 58 L 8.699219 58 Z M 8.699219 50.15625 " clip-rule="nonzero"/></clipPath><clipPath id="c05cf3bcb9"><path d="M 41.4375 57.988281 L 10.070312 57.988281 C 9.308594 57.988281 8.699219 57.371094 8.699219 56.617188 L 8.699219 51.527344 C 8.699219 50.765625 9.308594 50.15625 10.070312 50.15625 L 41.4375 50.15625 C 42.195312 50.15625 42.8125 50.765625 42.8125 51.527344 L 42.8125 56.617188 C 42.8125 57.371094 42.199219 57.988281 41.4375 57.988281 " clip-rule="nonzero"/></clipPath><clipPath id="b5170ce71f"><path d="M 13.789062 37.085938 L 48 37.085938 L 48 44.949219 L 13.789062 44.949219 Z M 13.789062 37.085938 " clip-rule="nonzero"/></clipPath><clipPath id="1cd3d6db50"><path d="M 46.253906 44.917969 L 15.441406 44.917969 C 14.527344 44.917969 13.789062 44.175781 13.789062 43.265625 L 13.789062 38.738281 C 13.789062 37.828125 14.527344 37.085938 15.441406 37.085938 L 46.253906 37.085938 C 47.164062 37.085938 47.90625 37.828125 47.90625 38.738281 L 47.90625 43.265625 C 47.90625 44.175781 47.167969 44.917969 46.253906 44.917969 " clip-rule="nonzero"/></clipPath><clipPath id="3103269e71"><path d="M 56.816406 32.085938 L 60 32.085938 L 60 48.203125 L 56.816406 48.203125 Z M 56.816406 32.085938 " clip-rule="nonzero"/></clipPath><clipPath id="2f7600bc99"><path d="M 59.523438 48.183594 L 57.167969 48.183594 L 57.167969 36.820312 L 59.523438 36.820312 Z M 57.253906 32.527344 C 57.53125 32.269531 57.890625 32.136719 58.34375 32.136719 C 58.796875 32.136719 59.164062 32.269531 59.449219 32.527344 C 59.734375 32.789062 59.875 33.121094 59.875 33.515625 C 59.875 33.914062 59.734375 34.242188 59.449219 34.488281 C 59.164062 34.730469 58.796875 34.859375 58.34375 34.859375 C 57.890625 34.859375 57.527344 34.730469 57.25 34.488281 C 56.976562 34.242188 56.839844 33.917969 56.839844 33.523438 C 56.839844 33.125 56.976562 32.792969 57.253906 32.535156 " clip-rule="nonzero"/></clipPath><clipPath id="d1420008c3"><path d="M 62 36.605469 L 73.132812 36.605469 L 73.132812 48.203125 L 62 48.203125 Z M 62 36.605469 " clip-rule="nonzero"/></clipPath><clipPath id="2c917c4387"><path d="M 71.898438 37.914062 C 72.695312 38.769531 73.09375 39.984375 73.09375 41.566406 L 73.09375 48.183594 L 70.742188 48.183594 L 70.742188 41.8125 C 70.742188 40.792969 70.480469 40.007812 69.960938 39.449219 C 69.441406 38.890625 68.722656 38.613281 67.816406 38.613281 C 66.878906 38.613281 66.132812 38.914062 65.570312 39.511719 C 65.003906 40.109375 64.722656 40.984375 64.722656 42.136719 L 64.722656 48.183594 L 62.367188 48.183594 L 62.367188 36.820312 L 64.71875 36.820312 L 64.71875 39.316406 C 65.023438 38.464844 65.53125 37.804688 66.242188 37.335938 C 66.957031 36.867188 67.78125 36.636719 68.71875 36.636719 C 70.039062 36.636719 71.09375 37.0625 71.894531 37.914062 " clip-rule="nonzero"/></clipPath><clipPath id="23579bf1b9"><path d="M 75.121094 36.605469 L 84.671875 36.605469 L 84.671875 48.40625 L 75.121094 48.40625 Z M 75.121094 36.605469 " clip-rule="nonzero"/></clipPath><clipPath id="c0345e2d7d"><path d="M 82.777344 37.699219 C 83.582031 38.378906 84.074219 39.289062 84.253906 40.433594 L 82.023438 40.433594 C 81.929688 39.816406 81.664062 39.3125 81.230469 38.9375 C 80.796875 38.5625 80.222656 38.367188 79.507812 38.367188 C 78.914062 38.367188 78.460938 38.507812 78.140625 38.792969 C 77.816406 39.078125 77.652344 39.457031 77.652344 39.933594 L 77.769531 40.582031 C 78.234375 41.019531 78.53125 41.195312 78.875 41.320312 C 79.222656 41.445312 79.726562 41.578125 80.371094 41.730469 C 81.226562 41.921875 81.914062 42.121094 82.445312 42.328125 C 82.976562 42.535156 83.429688 42.863281 83.804688 43.304688 C 84.179688 43.75 84.375 44.363281 84.375 45.132812 C 84.375 46.082031 84.011719 46.847656 83.289062 47.441406 C 82.566406 48.035156 81.597656 48.328125 80.371094 48.328125 C 78.953125 48.328125 77.8125 47.996094 76.9375 47.339844 C 76.066406 46.6875 75.539062 45.761719 75.363281 44.578125 L 77.652344 44.578125 C 77.71875 45.195312 77.996094 45.703125 78.476562 46.082031 C 78.957031 46.464844 79.589844 46.660156 80.375 46.660156 C 80.941406 46.660156 81.382812 46.511719 81.707031 46.21875 C 82.03125 45.921875 82.195312 45.546875 82.195312 45.09375 C 82.195312 44.695312 82.070312 44.378906 81.824219 44.144531 L 80.890625 43.601562 C 80.519531 43.46875 80.011719 43.335938 79.363281 43.199219 C 78.539062 43.007812 77.867188 42.8125 77.351562 42.621094 C 76.835938 42.429688 76.398438 42.113281 76.03125 41.679688 C 75.664062 41.246094 75.488281 40.660156 75.488281 39.914062 C 75.488281 38.953125 75.847656 38.175781 76.570312 37.574219 C 77.296875 36.96875 78.292969 36.675781 79.574219 36.675781 C 80.90625 36.675781 81.976562 37.011719 82.78125 37.699219 " clip-rule="nonzero"/></clipPath><clipPath id="889994d079"><path d="M 86.664062 36.605469 L 98.601562 36.605469 L 98.601562 53.640625 L 86.664062 53.640625 Z M 86.664062 36.605469 " clip-rule="nonzero"/></clipPath><clipPath id="30a46ecb1a"><path d="M 90.753906 39.203125 C 90.230469 39.511719 89.816406 39.953125 89.511719 40.523438 C 89.210938 41.09375 89.058594 41.753906 89.058594 42.496094 C 89.058594 43.253906 89.210938 43.914062 89.511719 44.476562 C 89.816406 45.042969 90.226562 45.480469 90.753906 45.789062 C 91.277344 46.097656 91.867188 46.25 92.527344 46.25 C 93.574219 46.25 94.414062 45.917969 95.042969 45.25 C 95.675781 44.578125 95.992188 43.664062 95.992188 42.496094 C 95.992188 41.34375 95.675781 40.425781 95.042969 39.75 C 94.414062 39.078125 93.574219 38.738281 92.527344 38.738281 C 91.867188 38.738281 91.273438 38.894531 90.753906 39.203125 M 95.898438 37.378906 C 96.675781 37.847656 97.28125 38.523438 97.726562 39.398438 C 98.167969 40.277344 98.386719 41.3125 98.386719 42.496094 C 98.386719 43.691406 98.164062 44.734375 97.726562 45.609375 C 97.285156 46.488281 96.675781 47.164062 95.898438 47.628906 C 95.121094 48.097656 94.238281 48.335938 93.246094 48.335938 C 92.214844 48.335938 91.335938 48.078125 90.601562 47.574219 C 89.871094 47.066406 89.363281 46.390625 89.078125 45.550781 L 89.078125 53.589844 L 86.730469 53.589844 L 86.730469 36.820312 L 89.085938 36.820312 L 89.085938 39.457031 C 89.375 38.617188 89.878906 37.945312 90.609375 37.4375 C 91.335938 36.929688 92.21875 36.675781 93.25 36.675781 C 94.238281 36.675781 95.125 36.910156 95.902344 37.375 " clip-rule="nonzero"/></clipPath><clipPath id="da8e1e061e"><path d="M 100 36.605469 L 111.335938 36.605469 L 111.335938 48.40625 L 100 48.40625 Z M 100 36.605469 " clip-rule="nonzero"/></clipPath><clipPath id="ce1fe91060"><path d="M 108.457031 40.027344 C 108.179688 39.523438 107.792969 39.152344 107.300781 38.914062 C 106.808594 38.671875 106.277344 38.550781 105.699219 38.550781 C 104.78125 38.550781 104.007812 38.832031 103.390625 39.394531 C 102.773438 39.960938 102.4375 40.789062 102.378906 41.894531 L 108.835938 41.894531 C 108.863281 41.148438 108.734375 40.527344 108.453125 40.027344 M 111.125 42.96875 L 102.386719 42.96875 C 102.429688 44.136719 102.753906 45.003906 103.355469 45.566406 C 103.960938 46.132812 104.710938 46.410156 105.605469 46.410156 C 106.386719 46.410156 107.050781 46.214844 107.59375 45.8125 C 108.140625 45.414062 108.472656 44.882812 108.597656 44.226562 L 111.117188 44.226562 C 110.964844 45.023438 110.648438 45.730469 110.164062 46.351562 C 109.683594 46.976562 109.054688 47.457031 108.289062 47.808594 C 107.523438 48.160156 106.660156 48.335938 105.710938 48.335938 C 104.609375 48.335938 103.636719 48.097656 102.792969 47.628906 C 101.949219 47.164062 101.285156 46.488281 100.800781 45.609375 C 100.320312 44.734375 100.078125 43.691406 100.078125 42.496094 C 100.078125 41.3125 100.320312 40.28125 100.800781 39.398438 C 101.285156 38.515625 101.945312 37.847656 102.792969 37.378906 C 103.640625 36.910156 104.609375 36.679688 105.710938 36.679688 C 106.824219 36.679688 107.796875 36.910156 108.628906 37.371094 C 109.457031 37.828125 110.097656 38.464844 110.546875 39.269531 C 110.996094 40.074219 111.214844 40.972656 111.214844 41.960938 L 111.132812 42.972656 " clip-rule="nonzero"/></clipPath><clipPath id="73cc07b1f9"><path d="M 112.527344 36.605469 L 124 36.605469 L 124 48.40625 L 112.527344 48.40625 Z M 112.527344 36.605469 " clip-rule="nonzero"/></clipPath><clipPath id="34acabf7fe"><path d="M 122.1875 37.84375 C 123.152344 38.617188 123.75 39.675781 123.980469 41.011719 L 121.480469 41.011719 C 121.34375 40.296875 121.007812 39.734375 120.484375 39.328125 C 119.957031 38.921875 119.289062 38.71875 118.492188 38.71875 C 117.585938 38.71875 116.828125 39.039062 116.222656 39.679688 C 115.613281 40.320312 115.316406 41.257812 115.316406 42.496094 C 115.316406 43.734375 115.617188 44.675781 116.222656 45.320312 C 116.824219 45.96875 117.582031 46.289062 118.492188 46.289062 C 119.289062 46.289062 119.953125 46.082031 120.484375 45.671875 C 121.015625 45.261719 121.347656 44.699219 121.480469 43.980469 L 123.980469 43.980469 C 123.742188 45.316406 123.144531 46.371094 122.1875 47.15625 C 121.226562 47.945312 120.007812 48.335938 118.535156 48.335938 C 117.4375 48.335938 116.460938 48.101562 115.617188 47.636719 C 114.773438 47.167969 114.109375 46.492188 113.628906 45.613281 C 113.144531 44.738281 112.902344 43.695312 112.902344 42.5 C 112.902344 41.320312 113.144531 40.285156 113.628906 39.40625 C 114.109375 38.523438 114.773438 37.851562 115.617188 37.382812 C 116.460938 36.917969 117.4375 36.683594 118.535156 36.683594 C 120.007812 36.683594 121.222656 37.074219 122.1875 37.851562 " clip-rule="nonzero"/></clipPath><clipPath id="a1036abd9d"><path d="M 125 33.933594 L 132 33.933594 L 132 48.203125 L 125 48.203125 Z M 125 33.933594 " clip-rule="nonzero"/></clipPath><clipPath id="802d8161f6"><path d="M 131.964844 46.144531 L 131.964844 48.191406 L 130.523438 48.191406 C 129.3125 48.191406 128.398438 47.902344 127.769531 47.3125 C 127.144531 46.722656 126.828125 45.753906 126.828125 44.394531 L 126.828125 38.820312 L 125.199219 38.820312 L 125.199219 36.820312 L 126.828125 36.820312 L 126.828125 33.996094 L 129.203125 33.996094 L 129.203125 36.820312 L 131.945312 36.820312 L 131.945312 38.820312 L 129.203125 38.820312 L 129.203125 44.433594 C 129.203125 45.078125 129.324219 45.527344 129.5625 45.773438 C 129.804688 46.019531 130.230469 46.144531 130.832031 46.144531 Z M 131.964844 46.144531 " clip-rule="nonzero"/></clipPath><clipPath id="c4a560e575"><path d="M 133.222656 36.605469 L 145.160156 36.605469 L 145.160156 48.40625 L 133.222656 48.40625 Z M 133.222656 36.605469 " clip-rule="nonzero"/></clipPath><clipPath id="1dce573cfd"><path d="M 137.699219 39.128906 C 137.1875 39.40625 136.78125 39.828125 136.46875 40.398438 C 136.15625 40.96875 136.003906 41.667969 136.003906 42.492188 C 136.003906 43.328125 136.160156 44.027344 136.46875 44.59375 C 136.777344 45.15625 137.1875 45.578125 137.699219 45.851562 C 138.210938 46.125 138.761719 46.265625 139.367188 46.265625 C 139.96875 46.265625 140.527344 46.132812 141.035156 45.851562 C 141.539062 45.570312 141.949219 45.15625 142.265625 44.59375 C 142.578125 44.027344 142.726562 43.328125 142.726562 42.492188 C 142.726562 41.667969 142.574219 40.96875 142.265625 40.398438 C 141.957031 39.828125 141.546875 39.40625 141.035156 39.128906 C 140.523438 38.855469 139.96875 38.714844 139.367188 38.714844 C 138.761719 38.714844 138.203125 38.855469 137.699219 39.128906 M 142.335938 37.375 C 143.214844 37.84375 143.902344 38.515625 144.398438 39.394531 C 144.898438 40.273438 145.144531 41.308594 145.144531 42.492188 C 145.144531 43.6875 144.898438 44.722656 144.398438 45.605469 C 143.902344 46.488281 143.21875 47.15625 142.335938 47.625 C 141.453125 48.09375 140.464844 48.328125 139.367188 48.328125 C 138.265625 48.328125 137.277344 48.097656 136.40625 47.625 C 135.53125 47.152344 134.84375 46.484375 134.34375 45.597656 C 133.839844 44.707031 133.589844 43.671875 133.589844 42.492188 C 133.589844 41.308594 133.839844 40.277344 134.34375 39.394531 C 134.84375 38.511719 135.53125 37.84375 136.40625 37.375 C 137.277344 36.90625 138.265625 36.675781 139.367188 36.675781 C 140.464844 36.675781 141.453125 36.910156 142.335938 37.375 " clip-rule="nonzero"/></clipPath><clipPath id="a9f9c87f5b"><path d="M 147.148438 36.605469 L 153.914062 36.605469 L 153.914062 48.203125 L 147.148438 48.203125 Z M 147.148438 36.605469 " clip-rule="nonzero"/></clipPath><clipPath id="93f9e0413b"><path d="M 151.417969 37.28125 C 152.128906 36.847656 152.953125 36.632812 153.890625 36.632812 L 153.890625 39.191406 L 153.191406 39.191406 C 152.160156 39.191406 151.328125 39.441406 150.703125 39.945312 C 150.074219 40.445312 149.761719 41.277344 149.761719 42.429688 L 149.761719 48.183594 L 147.410156 48.183594 L 147.410156 36.820312 L 149.761719 36.820312 L 149.761719 39.046875 C 150.148438 38.304688 150.699219 37.71875 151.410156 37.28125 " clip-rule="nonzero"/></clipPath></defs><g clip-path="url(#e9e20b2754)"><path fill="#ffffff" d="M 0.496094 0 L 164.503906 0 L 164.503906 82.003906 L 0.496094 82.003906 Z M 0.496094 0 " fill-opacity="1" fill-rule="nonzero"/></g><g clip-path="url(#1ac0de282d)"><g clip-path="url(#1ef1227bb6)"><path fill="#1c3d61" d="M 8.699219 24.015625 L 42.8125 24.015625 L 42.8125 31.847656 L 8.699219 31.847656 Z M 8.699219 24.015625 " fill-opacity="1" fill-rule="nonzero"/></g></g><g clip-path="url(#c9bf4f7936)"><g clip-path="url(#c05cf3bcb9)"><path fill="#1c3d61" d="M 8.699219 50.15625 L 42.8125 50.15625 L 42.8125 57.988281 L 8.699219 57.988281 Z M 8.699219 50.15625 " fill-opacity="1" fill-rule="nonzero"/></g></g><g clip-path="url(#b5170ce71f)"><g clip-path="url(#1cd3d6db50)"><path fill="#f4792c" d="M 13.789062 37.085938 L 47.902344 37.085938 L 47.902344 44.917969 L 13.789062 44.917969 Z M 13.789062 37.085938 " fill-opacity="1" fill-rule="nonzero"/></g></g><g clip-path="url(#3103269e71)"><g clip-path="url(#2f7600bc99)"><path fill="#1c3d61" d="M 54.429688 29.726562 L 156.300781 29.726562 L 156.300781 56 L 54.429688 56 Z M 54.429688 29.726562 " fill-opacity="1" fill-rule="nonzero"/></g></g><g clip-path="url(#d1420008c3)"><g clip-path="url(#2c917c4387)"><path fill="#1c3d61" d="M 54.429688 29.726562 L 156.300781 29.726562 L 156.300781 56 L 54.429688 56 Z M 54.429688 29.726562 " fill-opacity="1" fill-rule="nonzero"/></g></g><g clip-path="url(#23579bf1b9)"><g clip-path="url(#c0345e2d7d)"><path fill="#1c3d61" d="M 54.429688 29.726562 L 156.300781 29.726562 L 156.300781 56 L 54.429688 56 Z M 54.429688 29.726562 " fill-opacity="1" fill-rule="nonzero"/></g></g><g clip-path="url(#889994d079)"><g clip-path="url(#30a46ecb1a)"><path fill="#1c3d61" d="M 54.429688 29.726562 L 156.300781 29.726562 L 156.300781 56 L 54.429688 56 Z M 54.429688 29.726562 " fill-opacity="1" fill-rule="nonzero"/></g></g><g clip-path="url(#da8e1e061e)"><g clip-path="url(#ce1fe91060)"><path fill="#1c3d61" d="M 54.429688 29.726562 L 156.300781 29.726562 L 156.300781 56 L 54.429688 56 Z M 54.429688 29.726562 " fill-opacity="1" fill-rule="nonzero"/></g></g><g clip-path="url(#73cc07b1f9)"><g clip-path="url(#34acabf7fe)"><path fill="#1c3d61" d="M 54.429688 29.726562 L 156.300781 29.726562 L 156.300781 56 L 54.429688 56 Z M 54.429688 29.726562 " fill-opacity="1" fill-rule="nonzero"/></g></g><g clip-path="url(#a1036abd9d)"><g clip-path="url(#802d8161f6)"><path fill="#1c3d61" d="M 54.429688 29.726562 L 156.300781 29.726562 L 156.300781 56 L 54.429688 56 Z M 54.429688 29.726562 " fill-opacity="1" fill-rule="nonzero"/></g></g><g clip-path="url(#c4a560e575)"><g clip-path="url(#1dce573cfd)"><path fill="#1c3d61" d="M 54.429688 29.726562 L 156.300781 29.726562 L 156.300781 56 L 54.429688 56 Z M 54.429688 29.726562 " fill-opacity="1" fill-rule="nonzero"/></g></g><g clip-path="url(#a9f9c87f5b)"><g clip-path="url(#93f9e0413b)"><path fill="#1c3d61" d="M 54.429688 29.726562 L 156.300781 29.726562 L 156.300781 56 L 54.429688 56 Z M 54.429688 29.726562 " fill-opacity="1" fill-rule="nonzero"/></g></g></svg>