<svg xmlns="http://www.w3.org/2000/svg" xmlns:xlink="http://www.w3.org/1999/xlink" width="220" zoomAndPan="magnify" viewBox="0 0 165 82.499998" height="110" preserveAspectRatio="xMidYMid meet" version="1.0"><defs><clipPath id="11a44e6e0b"><path d="M 0.496094 0 L 164.503906 0 L 164.503906 82.003906 L 0.496094 82.003906 Z M 0.496094 0 " clip-rule="nonzero"/></clipPath><clipPath id="4948698021"><path d="M 8.699219 24 L 50 24 L 50 58 L 8.699219 58 Z M 8.699219 24 " clip-rule="nonzero"/></clipPath></defs><g clip-path="url(#11a44e6e0b)"><path fill="#ffffff" d="M 0.496094 0 L 164.503906 0 L 164.503906 82.003906 L 0.496094 82.003906 Z M 0.496094 0 " fill-opacity="1" fill-rule="nonzero"/></g><g clip-path="url(#4948698021)"><path fill="#6ac1e0" d="M 45.980469 55.941406 C 48.046875 52.792969 49.25 49.03125 49.25 44.992188 C 49.25 39.4375 46.984375 34.398438 43.308594 30.761719 C 43.195312 30.652344 43.085938 30.539062 42.972656 30.441406 C 42.960938 30.429688 42.945312 30.414062 42.917969 30.402344 C 42.722656 30.207031 42.511719 30.027344 42.300781 29.847656 C 42.246094 29.804688 42.191406 29.75 42.148438 29.707031 C 38.609375 26.667969 34.011719 24.847656 28.976562 24.847656 C 28.472656 24.847656 27.972656 24.863281 27.480469 24.902344 C 27.441406 24.902344 27.410156 24.902344 27.371094 24.917969 C 26.363281 25 25.382812 25.140625 24.433594 25.363281 C 24.378906 25.375 24.320312 25.390625 24.25 25.402344 C 23.652344 25.542969 23.050781 25.710938 22.476562 25.917969 C 22.449219 25.929688 22.421875 25.929688 22.390625 25.945312 C 21.945312 26.097656 21.511719 26.265625 21.09375 26.445312 C 20.742188 26.597656 20.394531 26.75 20.058594 26.917969 C 19.21875 27.320312 18.421875 27.792969 17.652344 28.304688 C 17.636719 28.320312 17.625 28.320312 17.609375 28.332031 C 16.546875 29.054688 15.554688 29.859375 14.644531 30.761719 C 10.96875 34.398438 8.703125 39.425781 8.703125 44.992188 C 8.703125 49.03125 9.90625 52.792969 11.976562 55.941406 C 12.101562 56.136719 12.253906 56.332031 12.4375 56.511719 C 13.808594 57.871094 16.015625 57.871094 17.371094 56.511719 L 28.976562 44.992188 L 40.582031 56.511719 C 41.953125 57.871094 44.160156 57.871094 45.53125 56.511719 C 45.699219 56.332031 45.855469 56.136719 45.980469 55.941406 Z M 45.980469 55.941406 " fill-opacity="1" fill-rule="nonzero"/></g><path fill="#3c618b" d="M 28.976562 54.011719 C 33.996094 54.011719 38.066406 49.972656 38.066406 44.992188 C 38.066406 40.007812 33.996094 35.96875 28.976562 35.96875 C 23.957031 35.96875 19.890625 40.007812 19.890625 44.992188 C 19.890625 49.972656 23.957031 54.011719 28.976562 54.011719 Z M 28.976562 54.011719 " fill-opacity="1" fill-rule="nonzero"/><path fill="#fa9453" d="M 35.410156 51.363281 L 31.453125 47.433594 C 30.082031 46.074219 27.871094 46.074219 26.515625 47.433594 L 22.546875 51.363281 C 24.195312 53 26.460938 54 28.976562 54 C 31.492188 54 33.757812 53 35.410156 51.363281 Z M 35.410156 51.363281 " fill-opacity="1" fill-rule="nonzero"/><path fill="#3d3d41" d="M 60.4375 52.417969 C 60.4375 51.222656 61.332031 50.417969 62.507812 50.417969 C 65.386719 50.417969 64.183594 53.832031 65.917969 53.832031 C 66.53125 53.832031 66.953125 53.332031 66.953125 52.667969 C 66.953125 50.558594 65.105469 50.195312 65.105469 48.476562 L 65.105469 41.535156 C 65.105469 40.230469 63.988281 39.894531 63.988281 39.203125 L 63.988281 39.089844 C 63.988281 38.785156 64.238281 38.648438 64.601562 38.453125 L 68.855469 36.398438 C 69.636719 36.007812 70.140625 36.453125 70.140625 36.980469 L 70.140625 50.058594 C 70.140625 51.445312 69.75 52.75 69.050781 53.582031 C 68.070312 54.722656 66.925781 55.386719 64.910156 55.386719 C 62.28125 55.386719 60.4375 54.472656 60.4375 52.417969 Z M 64.101562 32.121094 C 64.101562 30.539062 65.386719 29.347656 67.289062 29.347656 C 69.1875 29.347656 70.476562 30.539062 70.476562 32.121094 C 70.476562 33.703125 69.21875 34.898438 67.289062 34.898438 C 65.359375 34.898438 64.101562 33.675781 64.101562 32.121094 Z M 64.101562 32.121094 " fill-opacity="1" fill-rule="nonzero"/><path fill="#3d3d41" d="M 71.285156 43.171875 C 71.285156 39.0625 74.835938 36.257812 78.835938 36.257812 C 83.03125 36.257812 86.5 39.148438 86.5 43.226562 C 86.5 47.308594 83.113281 50.140625 79.03125 50.140625 C 74.949219 50.140625 71.285156 47.199219 71.285156 43.171875 Z M 81.410156 45.367188 C 81.410156 43.199219 80.261719 37.621094 78.054688 37.621094 C 76.710938 37.621094 76.234375 38.839844 76.234375 41.089844 C 76.234375 43.339844 77.355469 48.78125 79.621094 48.78125 C 80.933594 48.78125 81.410156 47.449219 81.410156 45.367188 Z M 81.410156 45.367188 " fill-opacity="1" fill-rule="nonzero"/><path fill="#3d3d41" d="M 102.550781 42.949219 C 102.550781 47.335938 99.417969 50.140625 95.949219 50.140625 C 94.46875 50.140625 93.40625 49.695312 92.566406 48.917969 L 92.566406 49.167969 C 92.566406 49.695312 92.34375 49.890625 91.839844 49.890625 L 87.617188 49.863281 C 87.226562 49.863281 86.972656 49.667969 86.972656 49.335938 L 86.972656 49.222656 C 86.972656 48.445312 88.09375 48.113281 88.09375 46.808594 L 88.09375 34.175781 C 88.09375 32.871094 86.722656 32.648438 86.722656 31.871094 L 86.722656 31.761719 C 86.722656 31.429688 86.863281 31.261719 87.476562 30.984375 L 91.785156 29.011719 C 92.484375 28.679688 93.097656 28.847656 93.097656 29.652344 L 93.097656 37.09375 C 93.824219 36.535156 94.804688 36.257812 95.949219 36.257812 C 99.109375 36.257812 102.550781 38.453125 102.550781 42.949219 Z M 97.628906 45.28125 C 97.628906 42.285156 96.816406 37.621094 94.777344 37.621094 C 93.769531 37.621094 93.097656 38.507812 93.097656 40.0625 L 93.097656 45.449219 C 93.097656 47.140625 94.273438 48.78125 95.503906 48.78125 C 96.929688 48.78125 97.628906 47.558594 97.628906 45.28125 Z M 97.628906 45.28125 " fill-opacity="1" fill-rule="nonzero"/><path fill="#3d3d41" d="M 104.367188 45.003906 L 104.367188 38.425781 L 103.304688 38.425781 C 102.941406 38.425781 102.660156 38.148438 102.660156 37.785156 L 102.660156 37.175781 C 102.660156 36.785156 102.914062 36.535156 103.304688 36.535156 L 103.835938 36.535156 C 105.542969 36.535156 106.882812 35.425781 107.246094 33.734375 C 107.332031 33.289062 107.636719 33.011719 108.003906 33.011719 L 108.644531 33.011719 C 109.09375 33.011719 109.402344 33.289062 109.402344 33.734375 L 109.402344 36.535156 L 112.28125 36.535156 C 112.644531 36.535156 112.925781 36.816406 112.925781 37.175781 L 112.925781 37.785156 C 112.925781 38.148438 112.644531 38.425781 112.28125 38.425781 L 109.402344 38.425781 L 109.402344 45.085938 C 109.402344 46.03125 109.960938 46.585938 110.660156 46.585938 C 111.75 46.585938 112.195312 46.058594 112.503906 45.558594 C 112.894531 45.058594 113.566406 45.226562 113.566406 45.753906 C 113.566406 47.890625 111.972656 50.140625 108.925781 50.140625 C 106.15625 50.140625 104.367188 48.363281 104.367188 45.003906 Z M 104.367188 45.003906 " fill-opacity="1" fill-rule="nonzero"/><path fill="#3d3d41" d="M 126.066406 45.867188 C 126.011719 47.390625 124.054688 50.140625 120.390625 50.140625 C 116.335938 50.140625 113.484375 47.335938 113.484375 43.117188 C 113.484375 38.898438 116.699219 36.257812 120.363281 36.257812 C 124.027344 36.257812 125.703125 38.3125 125.703125 40.0625 C 125.703125 40.894531 125.257812 41.449219 124.613281 41.785156 L 119.046875 44.894531 C 119.777344 46.03125 120.867188 46.699219 122.234375 46.699219 C 123.4375 46.699219 124.53125 46.144531 125.03125 45.476562 C 125.425781 45.089844 126.09375 45.253906 126.066406 45.867188 Z M 117.984375 40.535156 C 117.984375 41.617188 118.125 42.617188 118.40625 43.449219 L 121.007812 41.894531 C 121.453125 41.589844 121.734375 41.0625 121.734375 40.480469 C 121.734375 39.589844 121.285156 37.621094 119.859375 37.621094 C 118.710938 37.621094 117.984375 38.925781 117.984375 40.535156 Z M 117.984375 40.535156 " fill-opacity="1" fill-rule="nonzero"/><path fill="#3d3d41" d="M 126.375 43.171875 C 126.375 38.839844 129.675781 36.289062 133.476562 36.257812 C 136.75 36.230469 139.433594 37.898438 139.433594 40.367188 C 139.433594 41.203125 138.902344 42.035156 137.394531 41.980469 C 134.539062 41.8125 134.792969 37.59375 132.722656 37.621094 C 131.546875 37.648438 130.765625 39.035156 130.765625 40.730469 C 130.765625 44.339844 132.554688 46.726562 135.324219 46.726562 C 136.890625 46.726562 137.839844 45.894531 138.425781 45.117188 C 138.789062 44.671875 139.488281 44.808594 139.488281 45.421875 C 139.40625 47.835938 137.476562 50.140625 133.644531 50.140625 C 129.253906 50.140625 126.375 46.808594 126.375 43.171875 Z M 126.375 43.171875 " fill-opacity="1" fill-rule="nonzero"/><path fill="#3d3d41" d="M 155.960938 49.222656 L 155.960938 49.335938 C 155.960938 49.667969 155.707031 49.863281 155.289062 49.863281 L 149.722656 49.863281 C 149.304688 49.863281 149.054688 49.667969 149.054688 49.335938 L 149.054688 49.222656 C 149.054688 48.417969 150.117188 48.085938 150.058594 46.808594 L 149.78125 41.644531 C 149.640625 39.117188 149.109375 38.089844 147.824219 38.089844 C 146.535156 38.089844 146.003906 39.175781 146.003906 40.785156 L 146.003906 46.835938 C 146.003906 48.113281 147.261719 48.417969 147.261719 49.222656 L 147.261719 49.335938 C 147.261719 49.667969 146.984375 49.863281 146.59375 49.863281 L 140.523438 49.863281 C 140.132812 49.863281 139.878906 49.667969 139.878906 49.335938 L 139.878906 49.222656 C 139.878906 48.417969 141.113281 48.113281 141.113281 46.835938 L 141.113281 33.953125 C 141.113281 32.648438 139.742188 32.511719 139.742188 31.734375 L 139.742188 31.652344 C 139.742188 31.316406 139.992188 31.039062 140.382812 30.875 L 144.800781 28.929688 C 145.445312 28.652344 145.867188 28.875 145.867188 29.511719 L 145.867188 37.5625 C 146.675781 36.730469 147.851562 36.257812 149.277344 36.257812 C 151.710938 36.257812 154.28125 37.621094 154.589844 41.8125 L 154.953125 46.808594 C 155.066406 48.085938 155.960938 48.417969 155.960938 49.222656 Z M 155.960938 49.222656 " fill-opacity="1" fill-rule="nonzero"/></svg>