<svg xmlns="http://www.w3.org/2000/svg" xmlns:xlink="http://www.w3.org/1999/xlink" width="220" zoomAndPan="magnify" viewBox="0 0 165 82.499998" height="110" preserveAspectRatio="xMidYMid meet" version="1.0"><defs><clipPath id="90498667b1"><path d="M 0.496094 0 L 164.503906 0 L 164.503906 82.003906 L 0.496094 82.003906 Z M 0.496094 0 " clip-rule="nonzero"/></clipPath><clipPath id="ddbbbfa6fa"><path d="M 8.699219 20.5 L 156.300781 20.5 L 156.300781 61.503906 L 8.699219 61.503906 Z M 8.699219 20.5 " clip-rule="nonzero"/></clipPath></defs><g clip-path="url(#90498667b1)"><path fill="#ffffff" d="M 0.496094 0 L 164.503906 0 L 164.503906 82.003906 L 0.496094 82.003906 Z M 0.496094 0 " fill-opacity="1" fill-rule="nonzero"/><path fill="#ffffff" d="M 0.496094 0 L 164.503906 0 L 164.503906 82.003906 L 0.496094 82.003906 Z M 0.496094 0 " fill-opacity="1" fill-rule="nonzero"/></g><g clip-path="url(#ddbbbfa6fa)"><path fill="#000000" d="M 150.988281 47.46875 L 150.988281 36.882812 L 156.261719 36.882812 L 156.261719 31.125 L 150.988281 31.125 L 150.988281 24.605469 L 144.632812 24.605469 L 144.632812 31.125 L 140.761719 31.125 L 140.761719 36.882812 L 144.632812 36.882812 L 144.632812 53.226562 L 156.261719 53.226562 L 156.261719 47.46875 Z M 137.113281 27.1875 C 137.859375 26.449219 138.242188 25.515625 138.242188 24.394531 C 138.242188 23.292969 137.859375 22.382812 137.113281 21.640625 C 136.351562 20.902344 135.394531 20.542969 134.265625 20.542969 C 133.160156 20.542969 132.226562 20.902344 131.480469 21.640625 C 130.738281 22.382812 130.355469 23.292969 130.355469 24.394531 C 130.355469 25.515625 130.738281 26.449219 131.480469 27.1875 C 132.226562 27.929688 133.160156 28.289062 134.265625 28.289062 C 135.394531 28.289062 136.351562 27.929688 137.113281 27.1875 Z M 105.410156 61.460938 L 127.011719 61.460938 L 127.011719 31.125 L 120.65625 31.125 L 120.65625 33.496094 C 118.867188 31.570312 116.636719 30.597656 113.9375 30.597656 C 110.855469 30.597656 108.304688 31.65625 106.285156 33.792969 C 104.242188 35.929688 103.222656 38.597656 103.222656 41.773438 C 103.222656 44.992188 104.242188 47.660156 106.285156 49.796875 C 108.304688 51.933594 110.855469 53.015625 113.9375 53.015625 C 116.636719 53.015625 118.890625 52.039062 120.65625 50.113281 L 120.65625 55.703125 L 105.410156 55.703125 Z M 120.65625 41.773438 C 120.65625 43.339844 120.144531 44.632812 119.101562 45.667969 C 118.0625 46.707031 116.765625 47.234375 115.210938 47.234375 C 113.640625 47.234375 112.34375 46.707031 111.320312 45.667969 C 110.28125 44.632812 109.769531 43.339844 109.769531 41.773438 C 109.769531 40.230469 110.28125 38.917969 111.320312 37.878906 C 112.34375 36.839844 113.640625 36.3125 115.210938 36.3125 C 116.765625 36.3125 118.0625 36.839844 119.101562 37.878906 C 120.144531 38.917969 120.65625 40.230469 120.65625 41.773438 Z M 99.558594 27.1875 C 100.304688 26.449219 100.6875 25.515625 100.6875 24.394531 C 100.6875 23.292969 100.304688 22.382812 99.558594 21.640625 C 98.792969 20.902344 97.835938 20.542969 96.710938 20.542969 C 95.605469 20.542969 94.671875 20.902344 93.925781 21.640625 C 93.183594 22.382812 92.800781 23.292969 92.800781 24.394531 C 92.800781 25.515625 93.183594 26.449219 93.925781 27.1875 C 94.671875 27.929688 95.605469 28.289062 96.710938 28.289062 C 97.835938 28.289062 98.792969 27.929688 99.558594 27.1875 Z M 83.097656 53.226562 L 89.457031 53.226562 L 89.457031 22.003906 L 83.097656 22.003906 L 83.097656 33.539062 C 81.292969 31.570312 79.039062 30.597656 76.382812 30.597656 C 73.34375 30.597656 70.789062 31.699219 68.75 33.898438 C 66.6875 36.121094 65.667969 38.875 65.667969 42.15625 C 65.667969 45.457031 66.6875 48.210938 68.75 50.433594 C 70.789062 52.65625 73.34375 53.753906 76.382812 53.753906 C 79.058594 53.734375 81.292969 52.761719 83.097656 50.792969 Z M 83.097656 42.15625 C 83.097656 43.722656 82.589844 45.035156 81.570312 46.070312 C 80.527344 47.109375 79.230469 47.636719 77.65625 47.636719 C 76.105469 47.636719 74.828125 47.109375 73.808594 46.070312 C 72.769531 45.035156 72.257812 43.722656 72.257812 42.15625 C 72.257812 40.609375 72.769531 39.296875 73.808594 38.261719 C 74.828125 37.222656 76.105469 36.714844 77.65625 36.714844 C 79.207031 36.714844 80.503906 37.222656 81.546875 38.261719 C 82.589844 39.296875 83.097656 40.609375 83.097656 42.15625 Z M 59.574219 36.882812 L 64.84375 36.882812 L 64.84375 31.125 L 59.574219 31.125 L 59.574219 27.78125 L 64.84375 27.78125 L 64.84375 22.003906 L 53.21875 22.003906 L 53.21875 31.125 L 43.949219 31.125 L 43.949219 27.78125 L 49.21875 27.78125 L 49.21875 22.003906 L 37.59375 22.003906 L 37.59375 31.125 L 34.234375 31.125 L 34.234375 36.882812 L 37.59375 36.882812 L 37.59375 53.226562 L 43.949219 53.226562 L 43.949219 36.882812 L 53.21875 36.882812 L 53.21875 53.226562 L 59.574219 53.226562 Z M 8.738281 53.226562 L 30.929688 53.226562 L 30.929688 31.128906 L 8.738281 31.128906 Z M 15.109375 37.472656 L 24.558594 37.472656 L 24.558594 46.882812 L 15.109375 46.882812 Z M 99.921875 31.125 L 93.566406 31.125 L 93.566406 53.226562 L 99.921875 53.226562 Z M 137.476562 31.125 L 131.121094 31.125 L 131.121094 53.226562 L 137.476562 53.226562 Z M 137.476562 31.125 " fill-opacity="1" fill-rule="nonzero"/></g></svg>